<svg fill="#7e9fbc" viewBox="0 0 121 126"
     xmlns="http://www.w3.org/2000/svg">
    <path d="m54 52.7c-1.9 1.3-3.1 3.5-3.1 6 0 4.1 3.3 7.3 7.3 7.3 4.1 0 7.3-3.3 7.3-7.3 0-2.5-1.2-4.6-3.1-6v-38.7c0-2.4-1.9-4.3-4.3-4.3s-4.3 1.9-4.3 4.3v38.7zm42 57 12-30.7h-99.5l12 30.7c1.6 4 6.1 7.3 10.1 7.3h55.3c4-.1 8.6-3.3 10.1-7.3zm17.7-39.5v-6.4c0-2-1.6-3.6-3.6-3.6h-39c-1 6.2-6.4 10.9-12.9 10.9s-11.8-4.7-12.9-10.9h-39c-2 0-3.6 1.6-3.6 3.6v6.4c0 2 1.6 3.6 3.6 3.6h103.8c2.1 0 3.6-1.6 3.6-3.6z"/>
    <path d="m0 0h121v126h-121z" fill="none"/>
</svg>